<svg width="80" height="80" viewBox="0 0 80 80" fill="none" xmlns="http://www.w3.org/2000/svg">
<g clip-path="url(#clip0_224_2)">
<path d="M40.0005 80.001C62.0922 80.001 80.001 62.0922 80.001 40.0005C80.001 17.9088 62.0922 0 40.0005 0C17.9088 0 0 17.9088 0 40.0005C0 62.0922 17.9088 80.001 40.0005 80.001Z" fill="black"/>
<path d="M66.4485 70.01L30.7299 24.0005H24V55.9876H29.3841V30.8379L62.2223 73.2655C63.7019 72.2756 65.1138 71.188 66.4485 70.01Z" fill="url(#paint0_linear_224_2)"/>
<path d="M51.1113 24.0005H56.4447V56.0009H51.1113V24.0005Z" fill="url(#paint1_linear_224_2)"/>
</g>
<defs>
<linearGradient id="paint0_linear_224_2" x1="48.4448" y1="51.7786" x2="64.2227" y2="71.3344" gradientUnits="userSpaceOnUse">
<stop stop-color="white"/>
<stop offset="1" stop-color="white" stop-opacity="0"/>
</linearGradient>
<linearGradient id="paint1_linear_224_2" x1="53.778" y1="24.0005" x2="53.6887" y2="47.5008" gradientUnits="userSpaceOnUse">
<stop stop-color="white"/>
<stop offset="1" stop-color="white" stop-opacity="0"/>
</linearGradient>
<clipPath id="clip0_224_2">
<rect width="80" height="80" fill="white"/>
</clipPath>
</defs>
</svg>
